Coordinates
version=1
nRows=27
nColumns=12
inDegrees=yes

Units are S.I. units (second, meters, Newtons, ...)
Angles are in degrees

endheader
time	SC_y	SC_z	SC_x	AC_y	AC_z	AC_x	GH_y	GH_z	GH_yy	EL_x	PS_y
       0.0              -54.94          31.08          10.29          50.31         -15.72         -7.439         -51.48          41.28          147.5          59.53          126.9
   0.02528              -54.94          31.07          10.29          50.32         -15.72         -7.436         -51.49          41.28          147.5          59.53          126.9
   0.05056              -54.94          31.07           10.3          50.32         -15.72         -7.432          -51.5          41.27          147.4          59.53          126.8
   0.07584              -54.94          31.07          10.31          50.32         -15.71         -7.428         -51.52          41.27          147.4          59.54          126.8
    0.1011              -54.93          31.07          10.32          50.32         -15.71         -7.423         -51.53          41.26          147.3          59.54          126.8
    0.1264              -54.93          31.06          10.32          50.32          -15.7         -7.418         -51.55          41.26          147.3          59.54          126.8
    0.1517              -54.93          31.06          10.33          50.32          -15.7         -7.413         -51.56          41.25          147.2          59.54          126.8
     0.177              -54.92          31.06          10.34          50.32         -15.69         -7.408         -51.58          41.24          147.2          59.54          126.8
    0.2022              -54.92          31.05          10.35          50.32         -15.69         -7.402          -51.6          41.24          147.1          59.55          126.8
    0.2275              -54.91          31.05          10.36          50.33         -15.68         -7.396         -51.62          41.23          147.0          59.55          126.8
    0.2528              -54.91          31.05          10.37          50.33         -15.67          -7.39         -51.64          41.22          147.0          59.55          126.7
    0.2781               -54.9          31.04          10.39          50.33         -15.67         -7.382         -51.66          41.21          146.9          59.56          126.7
    0.3034               -54.9          31.04           10.4          50.33         -15.66         -7.375         -51.68           41.2          146.8          59.56          126.7
    0.3286              -54.89          31.03          10.41          50.33         -15.65         -7.366         -51.71          41.19          146.7          59.56          126.7
    0.3539              -54.88          31.03          10.43          50.34         -15.64         -7.358         -51.74          41.18          146.6          59.57          126.6
    0.3792              -54.88          31.02          10.44          50.34         -15.63         -7.348         -51.77          41.17          146.5          59.57          126.6
    0.4045              -54.87          31.02          10.46          50.34         -15.62         -7.337          -51.8          41.16          146.4          59.57          126.6
    0.4297              -54.86          31.01          10.48          50.34         -15.61         -7.326         -51.84          41.14          146.3          59.58          126.6
     0.455              -54.85           31.0           10.5          50.35          -15.6         -7.313         -51.88          41.13          146.2          59.58          126.5
    0.4803              -54.84          30.99          10.53          50.35         -15.58         -7.299         -51.92          41.11          146.0          59.59          126.5
    0.5056              -54.83          30.98          10.55          50.35         -15.57         -7.284         -51.97          41.09          145.9           59.6          126.4
    0.5309              -54.82          30.97          10.58          50.36         -15.55         -7.268         -52.02          41.07          145.7           59.6          126.4
    0.5561              -54.81          30.96          10.61          50.36         -15.53         -7.249         -52.08          41.05          145.5          59.61          126.3
    0.5814              -54.79          30.95          10.65          50.37         -15.51         -7.229         -52.14          41.03          145.3          59.62          126.3
    0.6067              -54.77          30.94          10.69          50.37         -15.49         -7.206         -52.21           41.0          145.1          59.63          126.2
     0.632              -54.76          30.92          10.73          50.38         -15.47         -7.181         -52.29          40.97          144.8          59.64          126.2
    0.6573              -54.74          30.91          10.78          50.39         -15.44         -7.153         -52.38          40.94          144.5          59.65          126.1
